<?xml version="1.0" encoding="iso-8859-1"?>
<!-- Uploaded to: SVG Repo, www.svgrepo.com, Generator: SVG Repo Mixer Tools -->
<!DOCTYPE svg PUBLIC "-//W3C//DTD SVG 1.1//EN" "http://www.w3.org/Graphics/SVG/1.1/DTD/svg11.dtd">
<svg fill="#000000" height="800px" width="800px" version="1.1" id="Capa_1" xmlns="http://www.w3.org/2000/svg" xmlns:xlink="http://www.w3.org/1999/xlink" 
	 viewBox="0 0 405.063 405.063" xml:space="preserve">
<path id="XMLID_569_" d="M301.266,186.348L216.661,17.135c-3.063-6.12-8.283-9.497-14.131-9.206
	c-5.852-0.308-11.071,3.086-14.129,9.207l-84.605,169.211c-4.235,8.471-4.235,23.9,0,32.371L188.4,387.929
	c2.939,5.88,7.872,9.224,13.439,9.224c0.229,0,0.459-0.005,0.69-0.017c5.845,0.291,11.069-3.085,14.131-9.207l84.604-169.211
	C305.501,210.247,305.501,194.817,301.266,186.348z M285.166,210.668L202.531,375.94l-82.636-165.273
	c-1.673-3.345-1.673-12.925,0-16.27l82.636-165.272l82.635,165.272C286.839,197.742,286.839,207.322,285.166,210.668z
	 M140.611,336.185c-1.628,3.011-4.726,4.72-7.924,4.72c-1.446,0-2.913-0.35-4.274-1.086
	c-50.502-27.319-81.874-79.925-81.874-137.286S77.911,92.565,128.413,65.246c4.372-2.365,9.833-0.738,12.198,3.634
	s0.738,9.833-3.634,12.198c-44.682,24.171-72.438,70.71-72.438,121.454s27.757,97.283,72.438,121.454
	C141.349,326.352,142.976,331.812,140.611,336.185z M18,202.532c0,4.971-4.029,9-9,9s-9-4.029-9-9
	C0,115.852,55.08,38.81,137.059,10.82c4.702-1.608,9.818,0.905,11.425,5.609c1.606,4.704-0.905,9.819-5.609,11.426
	C68.184,53.356,18,123.554,18,202.532z M264.451,68.88c2.365-4.372,7.825-5.999,12.198-3.634
	c50.501,27.319,81.873,79.924,81.873,137.286s-31.372,109.967-81.873,137.286c-1.361,0.736-2.828,1.086-4.274,1.086
	c-3.198,0-6.295-1.709-7.924-4.72c-2.365-4.372-0.738-9.833,3.634-12.198c44.681-24.171,72.438-70.709,72.438-121.454
	s-27.757-97.283-72.438-121.454C263.713,78.713,262.086,73.252,264.451,68.88z M202.53,161.277
	c-22.749,0-41.255,18.507-41.255,41.255s18.507,41.255,41.255,41.255c22.748,0,41.255-18.507,41.255-41.255
	S225.278,161.277,202.53,161.277z M202.53,225.787c-12.823,0-23.255-10.432-23.255-23.255s10.432-23.255,23.255-23.255
	s23.255,10.432,23.255,23.255S215.354,225.787,202.53,225.787z M405.063,202.532c0,85.661-54.228,162.407-134.938,190.974
	c-0.993,0.352-2.007,0.519-3.003,0.519c-3.706,0-7.177-2.307-8.484-6c-1.658-4.686,0.796-9.829,5.481-11.487
	c73.537-26.027,122.944-95.954,122.944-174.005c0-4.971,4.029-9,9-9S405.063,197.561,405.063,202.532z"/>
</svg>